<svg xmlns="http://www.w3.org/2000/svg" width="236.172" height="129.843" viewBox="0 0 236.172 129.843">
  <g id="Group_56" data-name="Group 56" transform="translate(369.59 -384.554) rotate(90)">
    <g id="Group_55" data-name="Group 55">
      <path id="Path_22" data-name="Path 22" d="M510.16,262.05l-14.67,15.1q-42.66,43.965-85.33,87.9a14.2,14.2,0,0,1-10.25,4.54,13.8,13.8,0,0,1-3.41-.43,16.15,16.15,0,0,1-11.38-11.12,14.244,14.244,0,0,1,3.72-14.09l15.89-16.37q36.93-38.04,73.87-76.08l-2.13-2.19q-22.17-22.83-44.33-45.66-21.645-22.29-43.3-44.6a14.231,14.231,0,0,1-3.73-14.08,16.15,16.15,0,0,1,11.38-11.12,13.938,13.938,0,0,1,13.67,4.1q6.2,6.375,12.38,12.75,22.155,22.815,44.32,45.65,21.645,22.29,43.3,44.6A15.252,15.252,0,0,1,510.16,262.05Z" fill="#676767"/>
    </g>
  </g>
</svg>
